<svg xmlns="http://www.w3.org/2000/svg">
<defs>
<font id="vertrina" horiz-adv-x="430" ><font-face
    font-family="Vertrina-Bold"
    units-per-em="1000"
    panose-1="2 0 0 0 0 0 0 0 0 0"
    ascent="984"
    descent="-272"
    alphabetic="0" />
<missing-glyph horiz-adv-x="830" d="M30 0V761H800V0H30ZM693 451Q690 454 690 459V463L692 464Q694 465 695 465Q697 465 701 461L702 460Q703 459 705 459V453Q710 453 712 456Q713 456 715 457T718 459Q723 459 725 463Q729 466 731 470Q732 471 733 473T736
477Q736 480 736 483T737 488Q737 494 736 499Q736 504 729 504Q726 510 722 510Q720 510 717 508T712 504Q710 504 702 500Q700 499 693 490Q693 488 688 485L686 483Q683 481 680 480Q679 480 677 479T672 477Q671 477 666 482Q661 482 661 487Q659 488 659 494Q659
499 661 502Q661 503 666 510Q667 510 668 512T671 516Q673 520 676 520Q680 523 686 523H695L693 520H685L676 516Q672 516 672 513L670 510Q668 508 668 506T666 504V500Q666 495 668 495V493H672Q674 493 676 494L680 495Q684 500 685 500Q693 510 695 511T701
513T708 516H722Q723 515 727 514T733 511Q740 509 740 502Q742 499 742 490Q742 487 737 480Q736 474 733 468Q729 461 725 459Q720 459 716 453Q714 452 706 450H699Q697 450 696 450T693 451ZM672 386L606 430Q611 430 611 436L614 440Q615 440 616 441T619
442L622 450Q625 453 627 459Q632 459 633 461H640L643 460Q646 459 650 459V453V450V445Q646 445 646 440Q648 440 651 439T656 437Q657 437 668 430L680 427Q683 427 685 426T690 425Q693 422 696 422Q701 422 701 425L702 427Q704 427 705 428H706Q708 428 708
430Q710 430 710 428Q712 428 712 427V425V421L710 419Q706 415 705 415H693Q689 415 683 419Q672 422 668 425Q657 430 656 430L642 437L637 428V427Q637 425 639 422L680 394L677 393Q676 391 676 389L674 387L672 386ZM626 451L616 437L632 428L640 440L642
445V448Q642 450 640 450Q640 451 639 451L637 453H633H629Q627 451 626 451ZM639 337L574 382Q574 384 575 385V386Q576 386 576 387L579 389Q579 392 583 397Q586 399 589 404Q590 407 592 409L593 411L595 415Q597 417 597 419L603 411H602H599L597 409Q595

<glyph unicode=" " glyph-name="space" horiz-adv-x="299" />
<glyph unicode="!" glyph-name="exclam" horiz-adv-x="180" d="M69 775T90 775T124 767T140 744T145 713T145 679L124 277Q122 260 111 243T90 225Q79 225 69 242T56 277L35 679Q33 696 34 713T39 744T56 766ZM30 13T30 40T47 86T90 105T132 86T150 40T133 -6T90
-25T48 -6Z" />
<glyph unicode="&quot;" glyph-name="quotedbl" horiz-adv-x="380" d="M165 662L152 610Q147 591 136 576T106 560Q91 560 78 575T60 608L33 719Q27 747 42 761T106 775Q192 775 178 719Q176 709 172 690T165 662ZM335 662L322 610Q317 591 306 576T276 560Q261
560 248 575T230 608L203 719Q197 747 212 761T276 775Q362 775 348 719Q346 709 342 690T335 662Z" />
<glyph unicode="#" glyph-name="numbersign" horiz-adv-x="723" d="M507 265Q558 265 571 302H608L613 282L610 245L590 225H470L405 -5H309L380 225H238L173 -5H77L148 225H143Q85 225 80 188H43L30 208L40 245L60 265H165L240 514H223Q165 514 160 477H123L110
497L120 535L131 554H249L316 755H390L329 554H481L548 755H622L561 554H580Q638 554 651 591H688L693 571L690 534L670 514H553L484 265H507ZM321 514L252 265H397L472 514H321Z" />
<glyph unicode="$" glyph-name="dollar" horiz-adv-x="575" d="M389 858L376 762L383 759Q417 750 426 750Q431 750 437 755H468L487 731Q487 684 514 630L508 605H471Q464 625 437 659T370 713L336 438Q373 427 399 416T454 386T502 341T532 278T545 190Q545
112 479 47T282 -24Q281 -33 279 -64T276 -105H180L188 -20Q81 -4 48 29Q46 93 30 127L35 152H85Q94 101 124 70T195 25L247 384Q205 397 178 410T120 444T75 498T60 574Q60 654 118 714T290 775Q291 775 295 775T301 774H302Q303 784 308 816T316 858H389ZM462
190Q462 260 427 297T327 358L287 16Q369 26 415 80T462 190ZM143 574Q143 527 172 503T258 461L296 735H287Q210 735 177 690T143 574Z" />
<glyph unicode="%" glyph-name="percent" horiz-adv-x="968" d="M517 192Q517 292 578 353T728 414Q816 414 877 353T938 192Q938 88 884 32T727 -25T571 31T517 192ZM601 192Q601 105 632 60T724 15T815 60T847 192Q847 276 812 325T725 374T637 325T601 192ZM30
554Q30 654 91 715T241 776T390 715T451 554Q451 450 397 394T240 337T84 393T30 554ZM114 554Q114 467 145 422T237 377T328 422T360 554Q360 638 325 687T238 736T150 687T114 554ZM682 755L373 -5H278L609 755H682Z" />
<glyph unicode="&amp;" glyph-name="ampersand" horiz-adv-x="918" d="M341 411L641 181Q648 212 649 245Q649 262 650 297T651 350Q651 415 567 415V441L590 455H744L767 441V415Q750 415 739 394T727 350L728 245Q728 185 709 130Q723 119 743 104Q780 76 821
56T888 35V9L861 -5H833Q781 -5 746 9T665 59Q587 -25 421 -25Q390 -25 360 -23T281 -13T192 11T113 55T52 127T30 230Q30 306 83 367T210 449Q168 517 168 574Q168 656 224 715T394 775Q433 775 494 758Q520 750 529 750Q533 750 539 755H570L589 731Q589 682
615 630L609 605H572Q562 636 510 685T392 735Q316 735 283 690T249 574Q249 554 251 540T261 504T289 459T341 411ZM421 15Q472 15 523 36T608 105L292 360Q263 383 239 410Q188 397 151 346T114 230Q114 15 421 15Z" />
<glyph unicode="&apos;" glyph-name="quotesingle" horiz-adv-x="210" d="M165 662L152 610Q147 591 136 576T106 560Q91 560 78 575T60 608L33 719Q27 747 42 761T106 775Q192 775 178 719Q176 709 172 690T165 662Z" />
<glyph unicode="(" glyph-name="parenleft" horiz-adv-x="304" d="M272 820V765Q250 765 226 738T180 665T144 548T130 396Q130 224 169 105T274 -15V-70Q203 -70 153 -31T78 78T41 225T30 396Q30 510 60 606T146 761T272 820Z" />
<glyph unicode=")" glyph-name="parenright" horiz-adv-x="304" d="M32 765V820Q102 820 158 762T244 607T274 396Q274 302 263 225T227 79T151 -30T30 -70V-15Q95 -15 134 104T174 396Q174 476 160 547T125 665T79 738T32 765Z" />
<glyph unicode="*" glyph-name="asterisk" horiz-adv-x="318" d="M217 563Q214 565 208 570T198 578L204 550Q208 532 198 522T159 512Q131 512 121 522T115 550Q115 553 116 563T119 578Q116 576 110 571T101 562H102Q69 530 40 577Q16 618 57 631Q62 633 74
637T90 643Q86 644 79 646T67 651T57 655Q17 666 40 709Q68 757 101 724Q102 723 109 717T120 708Q120 710 118 721T114 737Q110 756 120 765T159 775Q187 775 197 765T203 737Q201 731 199 709Q210 720 216 725Q248 756 278 709Q300 668 261 656L227 643Q249 635
261 632Q303 621 278 577Q250 530 217 563Z" />
<glyph unicode="+" glyph-name="plus" horiz-adv-x="399" d="M30 294V354H164V488H234V354H369V294H234V159H164V294H30Z" />
<glyph unicode="," glyph-name="comma" horiz-adv-x="212" d="M80 -110V-78Q94 -78 104 -62T117 -25H110Q69 -25 50 -7T30 40Q30 67 47 86T90 105H106Q144 105 163 74T182 10V5Q180 -38 153 -73T80 -110Z" />
<glyph unicode="-" glyph-name="hyphen" horiz-adv-x="410" d="M267 334Q325 334 338 371H375L380 350L370 314L350 294H143Q85 294 72 257H35L30 278L40 314L60 334H267Z" />
<glyph unicode="." glyph-name="period" horiz-adv-x="180" d="M30 13T30 40T47 86T90 105T132 86T150 40T133 -6T90 -25T48 -6Z" />
<glyph unicode="/" glyph-name="slash" horiz-adv-x="464" d="M434 755L125 -5H30L361 755H434Z" />
<glyph unicode="0" glyph-name="zero" horiz-adv-x="549" d="M30 374Q30 543 98 659T274 775Q382 775 450 659T519 374Q519 257 497 171T418 30T274 -25Q208 -25 160 5T84 92T43 218T30 374ZM113 374Q113 15 271 15Q428 15 428 374Q428 528 386 631T271 735Q223
735 187 686T132 556T113 374Z" />
<glyph unicode="1" glyph-name="one" horiz-adv-x="250" d="M192 -5H58L30 9V35Q51 35 65 56T80 100L87 650Q87 673 76 694T47 715V741L70 755H139L162 741L170 100Q170 77 184 56T220 35V9L192 -5Z" />
<glyph unicode="2" glyph-name="two" horiz-adv-x="534" d="M32 30L337 443Q398 527 398 599Q398 666 364 700T250 735Q214 735 181 719T125 679T90 636T74 605H36L30 630Q57 684 57 731L76 755H107Q113 750 118 750Q128 750 152 758Q208 775 247 775Q364 775
422 726T481 599Q481 550 464 506T407 406L149 36L376 39Q401 39 425 54T460 107H498L504 82Q477 28 477 -19L458 -43H422Q422 -29 415 -22T399 -14T376 -11Q328 -10 223 -8T69 -5H60L32 9V30Z" />
<glyph unicode="3" glyph-name="three" horiz-adv-x="570" d="M76 152L86 148Q109 15 261 15Q337 15 393 77T449 225Q449 272 434 308T397 363T345 395T292 411T244 415H199V455Q236 455 264 457T323 469T373 495T406 539T419 607Q419 734 275 734Q239 734 205
718T148 678T111 636T93 605H55L49 630Q76 684 76 731L95 755H126Q132 750 137 750Q146 750 172 758Q233 775 274 775Q377 775 439 735T502 607Q502 484 386 438Q540 393 540 225Q540 124 454 50T261 -25Q208 -25 142 -10T48 29Q46 93 30 127L35 152H76Z" />
<glyph unicode="4" glyph-name="four" horiz-adv-x="607" d="M31 268L344 755H405L411 276Q418 276 430 276T449 277Q474 277 498 292T533 345H571L577 320Q550 266 550 219L531 195H495Q495 216 484 221T449 227H412Q412 187 413 108T414 -12L386 -25H347L319
-11L323 228Q279 229 190 230T58 232L30 246L31 268ZM114 273L324 275Q325 342 326 457T329 639L114 273Z" />
<glyph unicode="5" glyph-name="five" horiz-adv-x="570" d="M186 649L158 455Q223 455 267 453T358 442T436 419T491 378T528 315T540 225Q540 124 454 50T261 -25Q208 -25 142 -10T48 29Q46 93 30 127L35 152H85Q108 15 261 15Q337 15 393 77T449 225Q449 274
438 308T406 363T348 395T267 411T157 415H59L121 741L147 755L389 759Q405 759 413 760T430 769T441 791H477L492 766Q485 720 503 666L493 641H455Q447 707 383 709L227 715Q214 716 202 694T186 649Z" />
<glyph unicode="6" glyph-name="six" horiz-adv-x="548" d="M408 735H363Q309 735 261 683T184 565T141 429Q188 475 271 475Q378 475 448 403T518 225Q518 121 450 48T279 -25Q171 -24 101 46T30 232Q30 380 74 504T197 702T371 775H385L408 761V735ZM276 435Q210
435 166 378T122 210Q122 125 167 71T279 15Q339 17 383 78T427 225Q427 314 386 374T276 435Z" />
<glyph unicode="7" glyph-name="seven" horiz-adv-x="540" d="M184 -25H123L95 -11V10Q95 82 116 161T175 304L421 715H363Q331 714 261 712T158 709Q91 704 74 641H36L30 666Q57 720 57 767L76 791H112Q112 770 123 765T158 759L486 755L509 742L510 720L276
299Q238 229 226 168T214 13V-13L184 -25Z" />
<glyph unicode="8" glyph-name="eight" horiz-adv-x="569" d="M539 187Q539 108 474 42T294 -25Q179 -25 105 40T30 188Q30 250 66 307T170 390Q66 454 66 579Q66 669 131 722T294 775Q378 775 445 716T512 580Q512 524 476 474T386 400Q458 372 498 324T539 187ZM125
188Q125 126 170 71T294 15T414 66T456 187Q456 222 443 248T402 292T352 320T290 343Q230 362 208 371Q181 356 163 335T138 288T128 240T125 188ZM294 735Q218 735 184 688T149 579Q149 549 159 526T182 488T221 460T265 440T317 423Q326 421 344 414Q385 441
407 485T429 579Q429 639 392 687T294 735Z" />
<glyph unicode="9" glyph-name="nine" horiz-adv-x="548" d="M235 35H241Q304 35 352 115T410 324Q362 275 277 275Q169 275 99 344T29 517Q29 623 96 699T265 775Q378 775 448 700T518 479Q518 247 443 121T230 -5Q214 -5 206 -6T191 -15T184 -37H148L129 -13Q129
18 112 54L105 68L111 93H149Q156 67 173 54T203 38T235 35ZM272 315Q338 315 382 372T426 540Q426 625 379 679T265 735Q211 735 166 669T120 517Q120 429 162 372T272 315Z" />
<glyph unicode=":" glyph-name="colon" horiz-adv-x="180" d="M30 13T30 40T47 86T90 105T132 86T150 40T133 -6T90 -25T48 -6ZM30 372T30 399T47 445T90 464T132 445T150 399T133 353T90 334T48 353Z" />
<glyph unicode=";" glyph-name="semicolon" horiz-adv-x="212" d="M80 -110V-78Q94 -78 104 -62T117 -25H110Q69 -25 50 -7T30 40Q30 67 47 86T90 105H106Q144 105 163 74T182 10V5Q180 -38 153 -73T80 -110ZM40 375T40 402T57 448T100 467T142 448T160 402T143
356T100 337T58 356Z" />
<glyph unicode="&lt;" glyph-name="less" horiz-adv-x="399" d="M30 294V350L369 480V417L122 322L369 228V165L30 294Z" />
<glyph unicode="=" glyph-name="equal" horiz-adv-x="399" d="M30 365V425H369V365H30ZM33 220V280H372V220H33Z" />
<glyph unicode="&gt;" glyph-name="greater" horiz-adv-x="399" d="M369 350V294L30 165V228L276 322L30 417V480L369 350Z" />
<glyph unicode="?" glyph-name="question" horiz-adv-x="451" d="M118 750Q127 750 146 758Q192 775 231 775Q286 775 325 760T384 719T412 665T421 604Q421 565 404 531T369 479T319 432Q295 411 282 398T257 362T245 318Q245 310 249 294Q254 274 254 269Q254
255 242 241T220 226Q203 226 189 261T174 318Q173 351 188 381T217 427T263 472Q289 496 301 509T326 546T339 596Q339 652 312 693T230 735Q195 735 165 719T116 678T89 636T75 605H38L30 630Q58 682 58 730L75 755H107Q113 750 118 750ZM151 13T151 40T168 86T211
105T253 86T271 40T254 -6T211 -25T169 -6Z" />
<glyph unicode="@" glyph-name="at" horiz-adv-x="691" d="M167 303Q175 356 214 384T321 413Q353 413 373 421T419 454V459Q434 539 372 539Q326 539 268 460L232 461L230 482Q244 507 249 535L266 557H289Q297 557 315 563Q344 572 376 572Q445 572 474 545T496
457L467 245Q465 229 465 218Q465 136 508 136Q570 136 570 374Q570 526 508 628T345 731T179 628T113 374Q113 296 125 234T163 122T236 45T345 18Q427 18 473 43Q504 61 530 61Q538 61 546 59L568 53Q489 -29 348 -29Q30 -29 30 374Q30 545 117 661T348 778T576
662T661 374Q661 303 643 241T587 137T500 95T414 124T379 209Q347 179 287 179Q220 179 190 218T167 303ZM318 380Q282 380 265 355T243 301Q236 262 247 237T289 212Q376 212 399 334Q400 343 401 352T405 373T408 391Q409 396 409 396T410 402Q375 380 318 380Z"
/>
<glyph unicode="A" glyph-name="A" horiz-adv-x="784" d="M82 102L312 741L334 755H469L491 741V715Q444 715 444 695Q444 686 454 652L653 102Q664 76 686 56T737 35V9L719 -5H584L562 9V35Q576 35 576 52Q576 73 567 98L510 244Q459 242 353 242Q278 242 196
245L139 98Q130 73 130 51Q130 35 143 35L144 9L122 -5H32L14 9L13 35Q32 35 47 47T67 71T82 102ZM354 655L211 286Q258 288 353 288Q443 288 495 286L354 655Z" />
<glyph unicode="B" glyph-name="B" horiz-adv-x="615" d="M58 -5L30 9V35Q51 35 65 56T80 100L88 650Q88 673 77 694T48 715V741L71 755L225 757Q280 758 327 750T419 723T489 666T515 574Q515 482 405 437Q485 410 535 351T585 215Q585 -5 230 -5H58ZM494 215Q494
296 440 351T303 415H166Q166 363 168 258T170 100Q170 77 181 56T210 35H230Q370 35 432 86T494 215ZM194 715Q181 715 173 694T164 650L166 455H295Q350 457 387 488T424 574Q424 611 414 637T387 679T343 702T289 712T226 715H194Z" />
<glyph unicode="C" glyph-name="C" horiz-adv-x="555" d="M507 30L504 26Q478 2 422 -11T314 -25Q216 -25 151 30T58 172T30 375Q30 546 100 660T290 775Q330 775 383 758Q405 750 415 750Q420 750 426 755H457L476 731Q476 684 503 630L497 605H459Q450 635 398
685T287 735Q206 735 160 633T113 375Q113 271 132 193T198 65T314 15Q341 15 369 23T429 65T470 152H520L525 127Q509 93 507 30Z" />
<glyph unicode="D" glyph-name="D" horiz-adv-x="619" d="M589 344Q589 178 502 85T262 -7Q228 -7 160 -6T58 -5L30 9V35Q51 35 65 56T80 100L87 650Q87 673 76 694T47 715V741L70 755L262 757Q419 758 504 640T589 344ZM208 37H262Q369 37 433 118T498 344Q498
442 473 521T394 654T262 713Q252 713 228 714T193 715Q180 716 172 695T163 650Q164 559 166 376T170 100Q170 77 181 57T208 37Z" />
<glyph unicode="E" glyph-name="E" horiz-adv-x="607" d="M340 418L166 415Q166 363 168 258T170 100Q170 78 181 58T208 37Q245 38 328 39T449 40Q474 40 498 55T533 108H571L577 83Q550 29 550 -18L531 -42H495Q495 -21 484 -16T449 -10L58 -5L30 9V35Q51 35
65 56T80 100L87 650Q87 673 76 694T47 715V741L70 755L398 759Q414 759 422 760T437 769T444 791H480L499 767Q499 720 526 666L520 641H482Q465 704 398 709Q366 710 296 712T193 715Q180 716 172 695T163 650L165 454Q194 454 252 453T340 452Q400 452 400 492H438L450
472V398L438 378H400Q400 416 340 418Z" />
<glyph unicode="F" glyph-name="F" horiz-adv-x="557" d="M192 -5H58L30 9V35Q51 35 65 56T80 100L88 650Q88 673 77 694T48 715V741L71 755L399 759Q415 759 423 760T438 769T445 791H481L500 767Q500 720 527 666L521 641H483Q466 704 399 709Q366 710 297 712T194
715Q181 716 173 695T164 650L166 454Q195 454 253 453T341 452Q401 452 401 492H439L451 472V398L439 378H401Q401 418 341 418L167 415L170 100Q170 77 184 56T220 35V9L192 -5Z" />
<glyph unicode="G" glyph-name="G" horiz-adv-x="572" d="M542 420L532 415Q522 415 515 399T505 360Q505 322 506 245T509 130Q510 60 528 39L523 24Q481 20 431 1Q361 -25 314 -25Q216 -25 151 30T58 172T30 375Q30 546 100 660T290 775Q330 775 383 758Q405
750 415 750Q420 750 426 755H457L476 731Q476 684 503 630L497 605H459Q450 635 398 685T287 735Q206 735 160 633T113 375Q113 271 132 193T197 65T311 15Q319 15 329 17T357 26T388 44T412 78T423 130L426 364V363Q424 383 414 399T390 415V441L412 455H520L542
441V420Z" />
<glyph unicode="H" glyph-name="H" horiz-adv-x="627" d="M569 -5H435L407 9V35Q428 35 442 56T457 100L461 414Q411 412 313 412Q218 412 166 414Q166 362 168 257T170 100Q170 77 184 56T220 35V9L192 -5H58L30 9V35Q51 35 65 56T80 100L87 650Q87 673 76 694T47
715V741L70 755H180L203 741V715Q186 715 175 694T163 650L165 456Q189 457 312 457Q434 457 461 456L464 650Q462 673 451 694T424 715V741L447 755H557L580 741V715Q563 715 552 694T540 650Q541 559 543 376T547 100Q547 77 561 56T597 35V9L569 -5Z" />
<glyph unicode="I" glyph-name="I" horiz-adv-x="250" d="M192 -5H58L30 9V35Q51 35 65 56T80 100L87 650Q87 673 76 694T47 715V741L70 755H180L203 741V715Q186 715 175 694T163 650Q164 559 166 376T170 100Q170 77 184 56T220 35V9L192 -5Z" />
<glyph unicode="J" glyph-name="J" horiz-adv-x="250" d="M-185 -204L-189 -200Q-191 -137 -207 -103L-202 -78H-151Q-146 -150 -111 -182T-38 -215Q77 -215 80 0Q81 108 83 325T87 650Q87 673 76 694T47 715V741L70 755H180L203 741V715Q186 715 175 694T163
650Q164 542 166 325T170 0Q171 -127 110 -191T-38 -255Q-123 -255 -185 -204Z" />
<glyph unicode="K" glyph-name="K" horiz-adv-x="701" d="M671 35V9L643 -5H615Q572 -5 529 28T459 112L284 444L167 290Q167 262 168 196T170 100Q170 77 184 56T220 35V9L192 -5H58L30 9V35Q51 35 65 56T80 100L87 650Q87 673 76 694T47 715V741L70 755H180L203
741V715Q186 715 175 694T163 650Q164 606 165 532T166 413L354 653Q389 696 389 712Q389 715 380 715V741L403 755H517L540 741V715Q521 715 488 694T436 647L331 508L561 102Q580 75 613 55T671 35Z" />
<glyph unicode="L" glyph-name="L" horiz-adv-x="607" d="M165 450L166 420Q167 367 168 260T170 100Q170 78 181 58T208 37Q245 38 328 39T449 40Q474 40 498 55T533 108H571L577 83Q550 29 550 -18L531 -42H495Q495 -21 484 -16T449 -10L58 -5L30 9V35Q51 35
65 56T80 100L87 650Q87 673 76 694T47 715V741L70 755H180L203 741V715Q186 715 175 694T163 650L165 450Z" />
<glyph unicode="M" glyph-name="M" horiz-adv-x="884" d="M826 -5H692L664 9V35Q685 35 699 56T714 100L721 539L452 -5H412L163 558Q164 481 166 329T168 100Q168 78 185 57T224 35V9L196 -5H66L38 9V35Q60 35 77 56T94 100L100 635Q101 668 81 691T30 715V741L52
755H149L442 141L755 755H826L844 741V715Q820 715 809 692T798 637L804 100Q804 77 818 56T854 35V9L826 -5Z" />
<glyph unicode="N" glyph-name="N" horiz-adv-x="676" d="M196 -5H66L38 9V35Q60 35 77 56T94 100L100 679Q69 715 30 715V741L52 755H149L532 138L538 650Q538 672 525 693T494 715V741L517 755H623L646 741V715Q630 715 617 694T602 650Q603 550 605 336T608
21L590 -5H502L165 573L168 100Q168 78 185 57T224 35V9L196 -5Z" />
<glyph unicode="O" glyph-name="O" horiz-adv-x="629" d="M30 375Q30 543 111 659T314 775T517 659T599 375Q599 259 572 172T479 30T314 -25Q216 -25 151 30T58 172T30 375ZM113 375Q113 271 132 193T197 65T311 15Q411 15 459 115T508 375Q508 525 452 630T311
735Q228 735 171 630T113 375Z" />
<glyph unicode="P" glyph-name="P" horiz-adv-x="557" d="M190 380V400L212 409Q253 381 310 381Q361 381 392 429T424 540Q424 631 370 673T226 715H194Q182 715 174 694T164 650Q165 563 167 375T170 100Q170 77 184 56T220 35V9L192 -5H58L30 9V35Q51 35 65
56T80 100L88 650Q88 673 77 694T48 715V741L71 755L225 757Q279 758 327 748T419 714T489 647T515 540Q515 462 453 402T310 341Q237 341 190 380Z" />
<glyph unicode="Q" glyph-name="Q" horiz-adv-x="651" d="M71 117L85 111Q83 101 83 97Q83 62 153 45Q52 149 52 375Q52 543 133 659T336 775T539 659T621 375Q621 227 574 125T428 -10Q496 -30 537 -73T579 -169Q579 -202 549 -226L515 -253Q522 -220 522 -219Q522
-167 482 -122T375 -66L169 -32Q98 -20 64 8T30 70Q30 98 55 110L71 117ZM135 375Q135 271 154 193T219 65T333 15Q433 15 481 115T530 375Q530 525 474 630T333 735Q250 735 193 630T135 375Z" />
<glyph unicode="R" glyph-name="R" horiz-adv-x="653" d="M395 248L348 373Q322 371 305 371Q231 371 166 406Q167 355 168 253T170 100Q170 77 184 56T220 35V9L192 -5H58L30 9V35Q51 35 65 56T80 100L88 650Q88 673 77 694T48 715V741L71 755L225 757Q271 757
316 749T408 721T485 658T515 556Q515 510 492 470T429 404L539 102Q548 75 570 55T623 35V9L605 -5H572Q543 -5 507 22T450 104L395 248ZM194 715Q181 715 173 694T164 650L166 452Q190 436 230 424T305 411Q363 411 393 452T424 556Q424 603 409 635T366 684T304
708T226 715H194Z" />
<glyph unicode="S" glyph-name="S" horiz-adv-x="575" d="M143 574Q143 551 152 532T172 502T208 480T248 464T297 450Q330 440 347 435T396 418T444 394T483 362T516 318T536 262T545 190Q545 154 529 118T480 49T390 -4T261 -25Q208 -25 142 -10T48 29Q46 93
30 127L35 152H85Q92 111 114 82T165 39T217 21T261 15Q312 15 352 32T416 77T450 134T462 190Q462 227 450 256T423 302T377 336T326 359T267 378Q226 391 204 398T150 423T102 458T73 506T60 574Q60 654 118 714T290 775Q327 775 390 758Q416 750 426 750Q431
750 437 755H468L487 731Q487 684 514 630L508 605H470Q460 636 407 685T287 735Q210 735 177 690T143 574Z" />
<glyph unicode="T" glyph-name="T" horiz-adv-x="738" d="M436 -5H302L274 9V35Q295 35 309 56T324 100L330 650Q329 671 320 692T300 715Q277 714 229 712T158 709Q93 706 74 641H36L30 666Q57 720 57 767L76 791H112Q112 770 123 765T158 759L369 756Q401 756
474 757T580 759Q596 759 604 760T619 769T626 791H662L681 767Q681 720 708 666L702 641H664Q645 706 580 709L438 715Q426 716 418 695T408 650Q409 563 411 375T414 100Q414 77 428 56T464 35V9L436 -5Z" />
<glyph unicode="U" glyph-name="U" horiz-adv-x="608" d="M578 720L568 715Q559 715 553 694T547 650Q548 575 550 423T552 195Q552 165 548 138T527 80T486 27T416 -10T312 -25T208 -10T136 27T92 80T70 139T64 195L70 650Q68 673 57 694T30 715V741L53 755H163L186
741V715Q170 715 159 694T146 650Q147 580 149 424T152 195Q157 15 309 15Q359 15 394 32T446 77T471 134T479 195Q479 271 480 423T483 650Q483 673 474 694T452 715V741L470 755H560L578 741V720Z" />
<glyph unicode="V" glyph-name="V" horiz-adv-x="784" d="M685 648L447 -12L431 -25H373L351 -11L114 648Q103 674 81 694T30 715V741L48 755H183L205 741V715Q191 715 191 698Q191 677 200 652L413 95L628 652Q637 677 637 699Q637 715 624 715L623 741L645 755H735L753
741L754 715Q735 715 720 703T700 679T685 648Z" />
<glyph unicode="W" glyph-name="W" horiz-adv-x="1070" d="M971 648L733 -12L717 -25H659L637 -11L542 251L447 -12L431 -25H373L351 -11L114 648Q103 674 81 694T30 715V741L48 755H183L205 741V715Q191 715 191 698Q191 677 200 652L413 95L509 344L400 648Q389
674 367 694T316 715V741L334 755H469L491 741V715Q477 715 477 698Q477 677 486 652L556 467L628 652Q637 677 637 699Q637 715 624 715L623 741L645 755H735L753 741L754 715Q735 715 720 703T700 679T685 648L589 382L699 95L914 652Q923 677 923 699Q923 715
910 715L909 741L931 755H1021L1039 741L1040 715Q1021 715 1006 703T986 679T971 648Z" />
<glyph unicode="X" glyph-name="X" horiz-adv-x="664" d="M147 -5H49L30 9V35Q46 35 73 57T114 103L282 391L137 648Q123 672 95 693T47 715V741L70 755H180L203 741V715Q191 715 191 706Q191 686 211 653L323 462L435 653Q461 698 461 712Q461 715 455 715V741L472
755H552L569 741V715Q555 715 530 694T491 648L354 408L534 103Q549 80 580 58T634 35V9L606 -5H472L444 9V35Q463 35 463 49Q463 64 446 98L313 334L180 98Q156 54 156 40Q156 35 166 35V9L147 -5Z" />
<glyph unicode="Y" glyph-name="Y" horiz-adv-x="646" d="M538 648L370 352Q370 313 371 226T373 100Q373 77 387 56T423 35V9L395 -5H261L233 9V35Q254 35 268 56T283 100L286 352L120 648Q106 672 78 693T30 715V741L53 755H163L186 741V715Q174 715 174 706Q174
687 194 653L339 407L482 652Q489 664 494 673T503 693T508 709T502 715V741L519 755H599L616 741V715Q603 715 578 693T538 647V648Z" />
<glyph unicode="Z" glyph-name="Z" horiz-adv-x="607" d="M30 31L438 715H380Q348 714 278 712T175 709Q108 704 91 641H53L47 666Q74 720 74 767L93 791H129Q129 770 140 765T175 759L503 755L526 742L527 720L147 36Q197 36 298 38T449 40Q474 40 498 55T533
108H571L577 83Q550 29 550 -18L531 -42H495Q495 -21 484 -16T449 -10L58 -5L30 9V31Z" />
<glyph unicode="[" glyph-name="bracketleft" horiz-adv-x="270" d="M30 -85L50 856H240V795H140V-25H240V-85H30Z" />
<glyph unicode="\" glyph-name="backslash" horiz-adv-x="460" d="M337 -5L28 755H101L432 -5H337Z" />
<glyph unicode="]" glyph-name="bracketright" horiz-adv-x="270" d="M220 856L240 -85H30V-25H130V795H30V856H220Z" />
<glyph unicode="^" glyph-name="asciicircum" horiz-adv-x="464" d="M35 619L51 668L71 724Q89 775 168 775Q225 775 225 751Q225 743 208 719L121 612Q107 596 87 582T54 568Q23 568 35 619ZM412 669L429 619Q441 568 410 568Q397 568 377 582T342 612L256 719Q239
743 239 751Q239 775 296 775Q375 775 393 724L412 669Z" />
<glyph unicode="_" glyph-name="underscore" horiz-adv-x="437" d="M0 -130V-100H437V-130H0Z" />
<glyph unicode="`" glyph-name="grave" horiz-adv-x="190" d="M146 631L157 599Q164 565 141 565Q122 565 96 593L42 660Q26 678 32 688T70 698Q122 698 134 665Q136 660 140 648T146 631Z" />
<glyph unicode="a" glyph-name="a" horiz-adv-x="500" d="M38 117Q38 188 82 225T213 263Q260 263 287 275T345 321L342 318V325Q343 377 320 406T251 435Q179 435 123 330L90 331L84 355Q98 389 98 430L114 455H139Q151 455 175 463H174Q206 475 252 475Q341
475 383 440T427 325L430 100Q430 76 440 56T470 35V9L444 -5Q386 -5 373 -25H339V11Q288 -25 220 -25Q133 -25 86 17T38 117ZM213 223Q185 223 165 212T137 183T125 149T122 117Q122 15 217 15Q280 15 309 46T340 159Q340 180 340 211T341 263Q295 223 213 223Z"
/>
<glyph unicode="b" glyph-name="b" horiz-adv-x="521" d="M280 -25Q199 -25 147 22Q111 13 92 -25H47Q63 8 63 100L70 650Q70 673 59 694T30 715V741L53 755Q99 755 108 775H145L149 420Q206 475 280 475Q366 475 428 402T491 225Q491 117 436 46T280 -25ZM154
225Q154 134 186 75T277 15T367 74T400 225Q400 312 364 373T277 435T191 374T154 225Z" />
<glyph unicode="c" glyph-name="c" horiz-adv-x="455" d="M393 316L383 320Q375 348 334 391T240 435Q180 435 147 376T114 225Q114 131 145 73T240 15Q259 15 272 18T305 31T343 66T381 130H416L421 106Q411 82 409 71T405 29Q345 -25 240 -25Q140 -25 85 46T30
225Q30 328 92 401T240 475Q285 475 323 463Q351 455 364 455H389L405 430Q405 386 425 340L419 316H393Z" />
<glyph unicode="d" glyph-name="d" horiz-adv-x="524" d="M494 9L468 -5Q410 -5 397 -25H363V14Q313 -25 240 -25Q140 -25 85 46T30 225Q30 328 92 401T240 475Q309 475 368 423L371 650Q369 673 358 694T331 715V741L354 755Q400 755 409 775H446L454 100Q454
76 464 56T494 35V9ZM114 225Q114 134 146 75T237 15T327 74T360 225Q360 312 324 373T237 435T151 374T114 225Z" />
<glyph unicode="e" glyph-name="e" horiz-adv-x="462" d="M432 306Q432 271 423 254T383 215Q310 221 233 221Q164 221 114 216Q115 126 146 71T240 15Q259 15 272 18T305 31T343 66T381 130H416L421 106Q411 82 409 71T405 29Q345 -25 240 -25Q140 -25 85 46T30
225Q30 328 92 401T240 475Q283 475 318 461T373 425T408 379T427 336T432 306ZM240 435Q184 435 153 386T115 256Q160 260 216 260Q276 260 331 256Q341 275 341 318Q341 329 338 345T325 383T293 420T240 435Z" />
<glyph unicode="f" glyph-name="f" horiz-adv-x="406" d="M225 420L156 418Q156 365 158 259T160 100Q160 76 170 56T200 35V9L174 -5H56L30 9V35Q49 35 59 55T70 100L74 417H31L37 446L58 456L74 455Q74 474 75 512T76 569Q77 648 122 711T242 775Q288 775 318
762Q334 755 348 755L364 730Q364 690 376 657L374 638H336Q327 685 306 710T242 735T176 685T154 569L155 455Q166 455 190 455T225 454Q285 454 285 494H323L335 474L327 422Q311 415 295 415Q285 415 275 417Q257 421 225 420Z" />
<glyph unicode="g" glyph-name="g" horiz-adv-x="550" d="M30 50Q30 109 91 142Q30 193 30 285Q30 364 91 419T240 475Q354 475 413 392Q449 411 480 475H515L520 451Q510 427 508 416T504 374Q479 350 440 344Q451 313 451 285Q451 202 397 149T240 95Q169 95
119 123Q101 114 91 97T80 70Q80 9 165 9H314Q404 9 458 -27T513 -132Q513 -172 488 -200T420 -244T331 -265T230 -272H210Q151 -272 91 -237T30 -151Q30 -136 31 -127T40 -104T64 -78Q91 -78 105 -63Q30 -40 30 50ZM114 285Q114 219 145 177T237 135T328 177T360
285Q360 347 324 391T237 435T150 391T114 285ZM185 -72Q157 -72 142 -70Q114 -86 114 -134Q114 -179 145 -205T210 -232H228Q265 -232 301 -228T376 -214T439 -183T463 -132Q463 -72 314 -72H185Z" />
<glyph unicode="h" glyph-name="h" horiz-adv-x="506" d="M450 -5H332L306 9V35Q325 35 335 55T346 100L348 339Q349 389 323 412T246 435Q226 435 200 425T156 398Q156 351 158 249T160 100Q160 76 170 56T200 35V9L174 -5H56L30 9V35Q49 35 59 55T70 100L77
650Q77 673 66 694T37 715V741L60 755Q106 755 115 775H152L156 460Q203 475 249 475Q340 475 385 445T433 339Q434 303 435 220T436 100Q436 76 446 56T476 35V9L450 -5Z" />
<glyph unicode="i" glyph-name="i" horiz-adv-x="230" d="M33 441L56 455H129L155 441L160 100Q160 76 170 56T200 35V9L174 -5H56L30 9V35Q49 35 59 55T70 100L73 343V350Q73 373 62 394T33 415V441ZM49 527T49 550T62 589T97 605T132 589T146 550T132 511T97
495T63 511Z" />
<glyph unicode="j" glyph-name="j" horiz-adv-x="250" d="M44 441L67 455H141L164 441L170 0Q171 -118 119 -186T-14 -255Q-53 -255 -74 -246T-118 -217Q-120 -215 -124 -212T-130 -207Q-130 -166 -140 -143L-131 -120H-89Q-72 -215 -14 -215Q35 -215 57 -169T80
0Q80 57 82 171T84 343V350Q84 373 73 394T44 415V441ZM60 527T60 550T73 589T108 605T143 589T157 550T143 511T108 495T74 511Z" />
<glyph unicode="k" glyph-name="k" horiz-adv-x="571" d="M515 -5H397L371 9V35Q385 35 385 43Q385 57 363 97L265 270L159 180Q159 170 159 140T160 100Q160 76 170 56T200 35V9L174 -5H56L30 9V35Q49 35 59 55T70 100L77 650Q77 673 66 694T37 715V741L60 755Q106
755 115 775H152L158 258L271 352H270Q281 360 289 367Q329 399 329 411Q329 415 322 415V441L349 455H430L457 441V415Q427 415 372 364Q364 356 350 344L323 321L451 103Q466 79 493 57T541 35V9L515 -5Z" />
<glyph unicode="l" glyph-name="l" horiz-adv-x="230" d="M174 -5H56L30 9V35Q49 35 59 55T70 100L77 650Q77 673 66 694T37 715V741L60 755Q106 755 115 775H152L160 100Q160 76 170 56T200 35V9L174 -5Z" />
<glyph unicode="m" glyph-name="m" horiz-adv-x="691" d="M112 475H156V452Q191 475 243 475Q323 475 359 436Q405 475 462 475Q614 475 618 339Q618 303 619 220T621 100Q621 76 631 56T661 35V9L635 -5H517L491 9V35Q510 35 520 55T531 100L533 339Q534 390
518 412T467 435Q415 435 385 389Q391 363 391 339Q392 303 393 220T394 100Q394 76 404 56T434 35V9L408 -5H290L264 9V35Q283 35 293 55T304 100L306 339Q307 390 291 412T240 435Q184 435 156 386Q156 341 158 243T160 100Q160 76 170 56T200 35V9L174 -5H56L30
9V35Q49 35 59 55T70 100L73 364Q73 383 61 399T34 415V441L57 455Q103 455 112 475Z" />
<glyph unicode="n" glyph-name="n" horiz-adv-x="506" d="M112 475H156V451Q200 475 258 475Q348 475 390 446T433 339Q434 303 435 220T436 100Q436 76 446 56T476 35V9L450 -5H332L306 9V35Q325 35 335 55T346 100L348 339Q349 390 327 412T255 435Q184 435
156 386Q156 341 158 243T160 100Q160 76 170 56T200 35V9L174 -5H56L30 9V35Q49 35 59 55T70 100L73 364Q73 383 61 399T34 415V441L57 455Q103 455 112 475Z" />
<glyph unicode="o" glyph-name="o" horiz-adv-x="481" d="M30 225Q30 328 92 401T240 475T388 402T451 225Q451 117 396 46T240 -25T85 46T30 225ZM114 225Q114 134 146 75T237 15T327 74T360 225Q360 312 324 373T237 435T151 374T114 225Z" />
<glyph unicode="p" glyph-name="p" horiz-adv-x="499" d="M116 475H153V436Q197 475 258 475Q343 475 406 395T469 210Q469 104 414 40T258 -25Q194 -25 158 2Q158 -23 159 -73T160 -150Q160 -174 170 -194T200 -215V-241L174 -255H56L30 -241V-215Q49 -215 59
-195T70 -150L76 350Q74 373 63 394T36 415V441L59 455Q107 455 116 475ZM156 225Q156 15 255 15Q314 15 346 68T378 210Q378 298 342 366T255 435Q208 435 182 376T156 225Z" />
<glyph unicode="q" glyph-name="q" horiz-adv-x="504" d="M30 210Q30 313 99 394T254 475Q330 475 374 415Q387 429 391 475H441Q430 417 428 353Q429 273 431 102T434 -150Q434 -174 444 -194T474 -215V-241L448 -255H330L304 -241V-215Q323 -215 333 -195T344
-150L346 -2Q308 -25 254 -25Q152 -25 91 40T30 210ZM114 210Q114 123 152 69T251 15Q348 15 348 225Q348 317 323 376T251 435Q200 435 157 366T114 210Z" />
<glyph unicode="r" glyph-name="r" horiz-adv-x="387" d="M223 435Q184 435 156 386Q156 341 158 243T160 100Q160 76 170 56T200 35V9L174 -5H56L30 9V35Q49 35 59 55T70 100L73 364Q73 383 61 399T34 415V441L57 455Q103 455 112 475H156V453Q186 475 223 475Q269
475 299 462Q315 455 329 455L345 430Q345 390 357 357L355 338H303Q295 381 273 408T223 435Z" />
<glyph unicode="s" glyph-name="s" horiz-adv-x="451" d="M421 123Q421 63 369 19T219 -25Q170 -25 122 -11T46 29Q45 59 43 70T30 105L35 130H70Q89 91 109 67T149 32T185 18T219 15Q281 15 309 46T337 123Q337 141 330 154T313 176T285 192T253 202T216 211Q185
218 168 222T125 238T86 262T62 297T51 349Q51 406 96 440T226 475Q267 475 305 463Q331 455 344 455H369L385 430Q385 386 405 340L399 316H364Q356 346 317 390T226 435Q188 435 165 415T137 374T136 350Q136 323 155 306T195 281T252 267Q290 259 313 252T364
230T407 188T421 123Z" />
<glyph unicode="t" glyph-name="t" horiz-adv-x="393" d="M109 775H144L148 455Q159 455 183 455T218 454Q278 454 278 494H316L328 474L320 422Q304 415 288 415Q278 415 268 417Q250 421 218 420L149 418L152 137Q154 72 170 44T226 15Q307 15 324 105H358L363
81Q357 61 357 29Q332 0 303 -12T226 -25Q149 -25 106 18T63 137L67 417Q43 415 30 415V446L51 456L67 455Q67 487 68 552T71 650Q71 715 47 715V741L70 755Q100 755 109 775Z" />
<glyph unicode="u" glyph-name="u" horiz-adv-x="549" d="M30 441L53 455H126L152 441L156 145Q157 77 179 46T258 15Q319 15 354 48T390 145L393 343V350Q393 373 382 394T353 415V441L376 455H449L475 441L479 100Q479 76 489 56T519 35V9L493 -5Q435 -5 422
-25H388V6Q338 -25 261 -25Q162 -25 114 21T67 145L70 343V350Q70 373 59 394T30 415V441Z" />
<glyph unicode="v" glyph-name="v" horiz-adv-x="533" d="M448 348L318 -12L302 -25H244L222 -11L88 359Q62 415 30 415V441L48 455H168L190 441V415Q172 415 172 397Q172 381 179 367L284 94L383 352L386 361Q397 390 397 400Q397 415 379 415L378 441L400 455H484L502
441L503 415Q477 415 448 348Z" />
<glyph unicode="w" glyph-name="w" horiz-adv-x="812" d="M179 367L284 94L376 333Q370 351 367 359Q341 415 309 415V441L327 455H447L469 441V415Q451 415 451 397Q451 381 458 367L563 94L662 352L665 361Q676 390 676 400Q676 415 658 415L657 441L679 455H763L781
441L782 415Q752 415 727 348L597 -12L581 -25H523L501 -11L409 238L318 -12L302 -25H244L222 -11L88 359Q62 415 30 415V441L48 455H168L190 441V415Q172 415 172 397Q172 381 179 367Z" />
<glyph unicode="x" glyph-name="x" horiz-adv-x="483" d="M432 420L422 415Q411 415 387 393T350 347L286 231L363 103Q406 35 452 35L453 9L426 -5H307L283 9L282 35Q296 35 296 44Q296 57 275 97Q269 107 260 125T242 155L210 98Q184 52 184 39Q184 35 193 35L192
9L174 -5H52L30 9L31 35Q61 35 90 53T138 103L206 219Q194 241 169 284T133 348Q118 374 91 394T45 415L44 441L68 455H183L205 441L206 415Q194 415 194 404Q194 380 212 352L249 292L285 353V352Q309 396 309 411Q309 415 302 415L303 441L318 455H414L433 441L432
420Z" />
<glyph unicode="y" glyph-name="y" horiz-adv-x="570" d="M459 348L178 -148Q154 -190 119 -222T58 -255H38L15 -241V-215Q32 -215 60 -193T103 -147L242 89L102 348Q93 371 68 393T22 415V441L48 455H172L200 441V415Q180 415 180 396Q180 378 190 352V353L292
175L395 353Q420 395 420 411Q420 415 412 415V441L430 455H522L540 441V415Q525 415 499 394T459 348Z" />
<glyph unicode="z" glyph-name="z" horiz-adv-x="448" d="M386 420L147 36Q174 36 227 38T308 40Q322 41 327 41T345 45T367 57T383 80H412L418 54Q403 21 403 0L382 -23H359Q357 -14 350 -10T337 -6T319 -5H58L30 9V30L298 412Q276 412 233 412T168 411Q107 409
86 352H53L46 381Q57 431 88 446T190 460Q218 460 276 458T362 455L385 442L386 420Z" />
<glyph unicode="{" glyph-name="braceleft" horiz-adv-x="337" d="M103 59L115 203Q118 262 96 305T30 393Q74 441 94 481T115 584V730Q115 795 165 835T307 875V819Q246 819 234 805T222 727V578Q222 522 201 482T141 396L136 391Q180 351 201 308T222 201V59Q222
-4 233 -17T307 -30V-86Q263 -86 248 -87Q242 -87 231 -87T215 -88Q155 -88 129 -61T103 59Z" />
<glyph unicode="|" glyph-name="bar" horiz-adv-x="155" d="M115 755L125 -5H30L42 755H115Z" />
<glyph unicode="}" glyph-name="braceright" horiz-adv-x="337" d="M222 203L234 59Q234 -33 208 -60T122 -88Q117 -88 106 -88T88 -87Q73 -86 30 -86V-30Q92 -30 103 -17T115 59V201Q115 265 136 307T201 390Q197 394 196 396Q157 441 136 481T115 578V727Q115
790 103 804T30 819V875Q122 875 172 835T222 730V584Q222 521 242 481T307 393Q263 348 241 305T222 203Z" />
<glyph unicode="~" glyph-name="asciitilde" horiz-adv-x="556" d="M38 641L30 647Q47 706 88 740T180 775Q205 775 226 764T260 740T290 705Q307 684 317 674T344 652T380 641Q416 641 438 675Q440 678 443 683T447 691V690Q460 715 480 715Q490 715 508 705Q510
704 514 703T522 701T527 699Q510 638 468 603T376 567Q350 567 328 579T294 603T262 639Q212 701 176 701T118 667Q116 664 113 659T109 651V652Q96 627 76 627Q66 627 48 638Q46 638 43 639T38 641Z" />
</font>
</defs>
</svg>
